<?xml version="1.0" encoding="utf-8"?>
<!-- Generator: Adobe Illustrator 19.0.0, SVG Export Plug-In . SVG Version: 6.00 Build 0)  -->
<svg version="1.1" id="Capa_1" xmlns="http://www.w3.org/2000/svg" xmlns:xlink="http://www.w3.org/1999/xlink" x="0px" y="0px"
	 viewBox="0 0 346 169" style="enable-background:new 0 0 346 169;" xml:space="preserve">
<style type="text/css">
	.st0{fill:#C7061B;}
	.st1{fill:#8EA2B3;}
	.st2{fill:#FEC04C;}
	.st3{fill:#8FA2B3;}
	.st4{fill:#8FA1B2;}
	.st5{fill:#8FA0B1;}
	.st6{fill:#B23D50;}
	.st7{fill:#9E7385;}
	.st8{fill:#91A0AF;}
	.st9{fill:#A06E80;}
	.st10{fill:#B34353;}
	.st11{fill:#B44151;}
	.st12{fill:#B04859;}
	.st13{fill:#A2697C;}
	.st14{fill:#BD484B;}
	.st15{fill:#959CA8;}
	.st16{fill:#B33A4E;}
	.st17{fill:#9F7082;}
	.st18{fill:#949FAB;}
	.st19{fill:#B23C50;}
	.st20{fill:#A16A7C;}
	.st21{fill:#919AAB;}
	.st22{fill:#A06C7E;}
	.st23{fill:#AC4E61;}
	.st24{fill:#AF5161;}
	.st25{fill:#90A2B2;}
	.st26{fill:#9F7284;}
	.st27{fill:#C6091D;}
	.st28{fill:#9F7183;}
	.st29{fill:#AC5064;}
	.st30{fill:#B13E52;}
	.st31{fill:#9198A9;}
	.st32{fill:#AA5467;}
	.st33{fill:#A8596D;}
	.st34{fill:#C7071B;}
	.st35{fill:#C6061A;}
	.st36{fill:#B44050;}
	.st37{fill:#B13D51;}
	.st38{fill:#CC2124;}
	.st39{fill:#AA5367;}
	.st40{fill:#B33D4F;}
	.st41{fill:#C6071C;}
	.st42{fill:#A06A7C;}
	.st43{fill:#C8101E;}
	.st44{fill:#B63E4D;}
	.st45{fill:#C1564F;}
	.st46{fill:#CE2524;}
	.st47{fill:#B54451;}
	.st48{fill:#A56174;}
	.st49{fill:#A27582;}
	.st50{fill:#C9121E;}
	.st51{fill:#B4525B;}
	.st52{fill:#9492A2;}
	.st53{fill:#AB5265;}
	.st54{fill:#B24957;}
	.st55{fill:#A67980;}
	.st56{fill:#9698A5;}
	.st57{fill:#9E7384;}
	.st58{fill:#AB5266;}
	.st59{fill:#B13F53;}
	.st60{fill:#909CAC;}
	.st61{fill:#AF4458;}
	.st62{fill:#B54150;}
	.st63{fill:#CF2322;}
</style>
<g>
	<path class="st0" d="M172.7,169c-56.6,0-113.2,0-169.8,0c-2.4,0-2.8-0.2-2.8-1.4C0.1,112.3,0.1,56.8,0,1.4C0,0.2,0.5,0,2.8,0
		c113.4,0,226.9,0,340.3,0c2.4,0,2.8,0.2,2.8,1.4c-0.1,55.4-0.1,110.9,0,166.3c0,1.2-0.5,1.4-2.8,1.4C286.3,169,229.5,169,172.7,169
		z"/>
	<path class="st1" d="M292.7,34.9c-9.4,10.8-18.8,21.6-28.1,32.3c-0.8,0.9-1.7,1.3-2.9,1.3c-7.6,0-15.3-0.1-22.9,0
		c-2,0-2.6-0.6-2.6-2.6c0.1-9.7,0.1-19.5,0-29.2c0-1.6,0.3-2.6,2.2-2.6c17.9,0.1,35.7,0.1,53.6,0.2
		C292.2,34.3,292.3,34.4,292.7,34.9z"/>
	<path class="st1" d="M51.8,68.5c-5.4,0-10.7-0.1-16.1,0c-2.1,0-2.8-0.6-2.8-2.7c0.1-9.6,0.1-19.2,0-28.9c0-2.1,0.6-2.9,2.8-2.8
		c10.7,0.1,21.5,0.1,32.2,0c2.1,0,2.8,0.7,2.8,2.8c-0.1,9.6-0.1,19.2,0,28.9c0,2.1-0.6,2.8-2.8,2.8C62.5,68.4,57.1,68.5,51.8,68.5z"
		/>
	<path class="st1" d="M228.5,37.2c-1.2,16-2.4,32.4-3.6,48.7c-0.1,1.9-0.5,3-2.9,2.3c-4.1-1.1-8.3-1.9-12.4-2.8
		c-1.7-0.3-2.5-0.8-2.2-2.9c2.1-14,4-27.9,5.9-41.9c0.3-2,1-3.1,3.1-3.5c3.3-0.6,6.6-1.5,9.8-2.3C228.1,34.3,229.1,34.7,228.5,37.2z
		"/>
	<path class="st1" d="M99,104.5c-9.7,0-19.4-0.1-29.2,0.1c-2.6,0-3.4-0.8-3.3-3.4c0.2-6,0.1-12,0-17.9c-0.1-2.4,0.8-3.3,3.2-3.3
		c9-0.2,17.9-0.5,26.9-0.9c2.4-0.1,3.3,0.7,3.4,3.1c0.1,2.7,0.6,5.4,1,8.2c0.8,4.3-0.1,8.5-0.4,12.8
		C100.4,103.8,99.8,104.3,99,104.5z"/>
	<path class="st1" d="M99.7,45.5c0,4.4-0.1,8.7,0,13.1c0.1,2.1-0.5,2.9-2.7,2.9c-5.5-0.1-11-0.1-16.4,0c-1.8,0-2.6-0.5-2.8-2.5
		c-0.6-9.1-1.3-18.1-2.1-27.2c-0.2-2.2,0.3-3.1,2.7-3c6.2,0.2,12.5,0.1,18.7,0c2,0,2.6,0.6,2.6,2.6C99.7,36,99.7,40.7,99.7,45.5z"/>
	<path class="st2" d="M198.1,96.4c0,8-0.1,16,0,24c0,2.3-0.8,2.8-3,3c-4.5,0.4-7.6-0.7-9-5.5c-0.6-2-1.8-3.8-3.3-5.5
		c-0.2,3.6-0.4,7.3-0.6,10.9c-1,1.6-2.6,1.6-4.2,1.4c-0.9,0-1.8-0.1-2.7-0.3c-0.7-0.1-1.4-0.1-2-0.5c-2.1-1.9-2.1-4.2-1.6-6.7
		c0.5-2.5,0.3-5,0.2-7.5c-0.5-3,0.2-6.1-0.4-9.2c0-1.2,0-2.4,0.1-3.6c0.2-1.7,0.3-3.4,0.1-5.2c-0.3-2.5,0.7-4,3.8-3.8
		c1.7,0.1,3.5,0.1,5.2,0c0.4,0.1,0.8,0.1,1.2,0.1c2.2-0.3,3,1.4,3.8,3c0.7,1.3,1.3,2.7,1.7,3.7c0.6-2.3-2-6,2.7-7.2
		c0.4,0,0.8,0,1.2,0.1c0.1,0,0.2,0,0.4,0C199.2,88.5,199.2,88.5,198.1,96.4z"/>
	<path class="st3" d="M141.3,45.7c0-2.9,0.1-5.7,0-8.6c-0.1-2.2,0.7-3,3-3c16.3,0.1,32.7,0.1,49,0c1.8,0,2.7,0.6,3.3,2.3
		c1.2,3.2,2.5,6.2,3.8,9.3c-0.2,1.9-1.7,1.9-3,2.1c-1.9,0.2-3.8,0.3-5.6,0.1c-5-0.6-8.8,0.8-10.2,6.1c-0.8,0.5-1.6,0.6-2.5,0.1
		c-1-1-2.6-1.5-3.1-3c-1.1-2.2-3.1-3-5.5-3.1c-0.9,0-1.7,0-2.6-0.1c-5-0.5-9.6-0.2-11.4,5.7c-2.1,0.4-3.2-1.4-4.9-2.1
		c-1.4-2.8-3.8-3.5-6.7-3.6C143.4,47.8,141.5,48.1,141.3,45.7z"/>
	<path class="st3" d="M131.5,49c-2.3,6.2-2.4,12.9-3.9,19.3c-0.6,2.8-1.2,5.6-1.4,8.5c-0.2,2.8-1.4,3.4-4,3.4c-8,0-8,0.1-8-8.1
		c0-11.5,0.1-23-0.1-34.4c0-2.8,0.7-3.8,3.6-3.6c4.4,0.2,8.7,0.1,13.1,0c2.2-0.1,2.7,0.6,2.3,2.8c-0.6,4-2.1,8-1.6,12.2L131.5,49z"
		/>
	<path class="st2" d="M141.3,45.7c1.7,0.1,3.5,0.2,5.2,0.1c3.1-0.2,5.3,1,6.4,3.9c0.7,1.1,0.9,2.3,1.1,3.5
		c0.7,5.1,0.4,10.2,0.2,15.3c-0.1,2.9-0.1,5.9-0.3,8.8c-0.1,1.1,0.2,2.3-1,3.1c-2.1,0.9-4.3,1.1-6.5,0.6c-1.7-0.1-3.5-0.1-4.8-1.5
		c-1.7,2.2-4.1,1.5-6.3,1.5c-0.7,0-1.5-0.1-2.2-0.2c-0.9,0-1.4-0.6-1.8-1.2c-0.3-10.3-0.4-20.5,0-30.8c0,0,0,0.1,0,0.1
		C133.6,44.5,137.9,46.4,141.3,45.7z"/>
	<path class="st2" d="M225.1,95.4c1.6-1.6-1.1-4.9,1.8-5.8c2-0.6,4.2-0.1,6.3-0.2c1,0,2-0.1,3-0.2c5.4-3.3,9.6-1.9,13.1,4.3
		c0.6,1.3-0.1,2.4-0.4,3.5c-0.4,1.3-0.1,2.9-1.6,3.7c-0.5,2.8,0.4,6.1-2.7,8.1c-1.3,0.8,0,1.1,0.4,1.5c1.7,2,3,9.8,2,12
		c-0.5,1.1-1.4,0.9-2.2,0.9c-1.6,0.1-3.2,0.1-4.8,0.1c-0.7,0.6-1.5,1-2.5,0.7c-1.4-0.7-1.9-1.9-1.8-3.3c0,0.1,0-0.1,0-0.1
		s0.1,0.1,0,0.1c-0.1,4.1-0.4,4.3-5.5,4c-0.9,0-1.8-0.1-2.7-0.2c-1.8-0.2-2.4-1.3-2.1-3c0-2.6,0-5.3,0-7.9c-1.3-2.2-1-4.8-1.3-7.2
		c0-2.9-1.1-5.8-0.3-8.8C224,96.7,224.5,96,225.1,95.4z"/>
	<path class="st2" d="M170.3,122.5c-2.6,1.5-5.3,0.5-8,0.6c-1.4,0.1-1.4-1.2-1.4-2.1c-0.1-1.6,0-3.2-0.1-4.9c0-1.9-0.9-2.5-2.7-1.7
		c-0.6,1.9-0.2,3.9-0.3,5.8c-0.1,4.3-0.3,4.5-4.6,4.5c-1,0-1.9-0.1-2.8-0.2c-0.5-0.1-1-0.1-1.5-0.2c-2.2-1.4-2.1-3.9-2.3-6
		c-0.2-3.2-0.3-6.5,0.2-9.7c0-5.5,0.4-11,0.3-16.4c0-2.7,0.9-4.9,4.3-4.3c4.5,0.1,9-0.1,13.5,0.1c3.6,0.1,5.8,1.5,6.7,5
		c0.3,1.2-0.1,2.4-0.2,3.6c-0.2,1.2-0.1,2.4-0.2,3.7c0.6,3.2,0.5,6.2-1,9.1c-0.4,1.6,1.4,2.4,1.4,3.9c0.1,0.6,0.1,1.2,0,1.9
		C170.9,117.6,172.2,120.4,170.3,122.5z"/>
	<path class="st2" d="M129.7,123.4c-4.7-0.8-5.3-1.5-6-7c-0.3-0.3-0.6-0.6-0.8-1c-0.5-1.7-0.3-3.4-0.5-5.2
		c-0.9-4.3-0.8-8.6-0.2-12.9c0.3-0.3,0.6-0.7,0.9-1c0.2-0.4,0.7-0.8,0.7-1.2c0.1-4.4,2.6-6.1,6.7-6c4.7-2.6,12.1-1.7,15.9,2
		c1.3,1.6,0.7,3.4,0.8,5.2c-0.4,4,0,8-0.3,12c-0.5,3.4-0.2,6.8-0.4,10.2c-0.2,4.2-1.7,6.1-5.8,6.3
		C137.1,125,133.1,126.2,129.7,123.4z"/>
	<path class="st2" d="M222.6,114.2c0.2,9,0.2,9-8.8,9c-3.4,0-6.7-0.1-10.1,0c-1.8,0-2.7-0.4-2.7-2.5c0.1-9.6,0.1-19.2,0-28.8
		c0-2,0.7-2.6,2.6-2.6c5.2,0.1,10.5,0.1,15.7,0c2.6-0.1,3.7,0.7,3.4,3.4c-0.1,0.8,0.1,1.7,0.1,2.6c1.9,3.7,1.2,5-2.8,4.8
		c-1.2-0.1-2.4,0.2-3.1,0c1.2,0.3,3.7-1.1,4.1,2.1c0.2,1,0.3,1.9,0.1,2.9c-0.1,1.2-0.2,2.3-0.2,3.5c0.1,2.9-1.4,3.9-4.3,3.8
		C218.9,112.5,221,112.5,222.6,114.2z"/>
	<path class="st3" d="M60.6,87.6c0,3.5-0.1,7,0,10.5c0,1.9-0.3,2.7-2.5,2.2c-6.5-1.3-13-2.4-19.5-3.5c-1.8-0.3-2.8-1-2.8-3.1
		c0.1-5.7,0.1-11.5,0-17.2c0-2.1,0.7-2.8,2.8-2.8c6.4,0.1,12.7,0.1,19.1,0c2.4-0.1,3,0.8,2.9,3C60.5,80.4,60.6,84,60.6,87.6z"/>
	<path class="st2" d="M99,104.5c0.1-2.8,0.2-5.6,0.2-8.4c0-2.2,0.4-4.1,1.8-5.8c1.4-0.3,2.7-0.7,4.1-1c2-1.8,4.1-1.5,6.2-0.1
		c0.8,0.1,1.7,0.2,2.5,0.3c5.8,0.2,6.7,1,7.1,6.8c1.6,1.9,0.8,4.2,0.8,6.4c0,1.4-1.3,1.9-2.6,2.1c-1.5,0.2-2.9,0.2-4.4,0.1
		c-1-0.3-2.2-0.2-3.2-0.7c-2.1,0.5-2.4,2.3-0.6,4.6c3.4,0.2,6.8-0.4,10.2,0.3c0.3,0.3,0.5,0.6,0.6,1c0.1,0.8,0.1,1.6,0.1,2.4
		c0,0.4,0,0.8,0,1.2c0.1,1,0,2-1,2.7c-0.4,6-1.5,6.9-7.6,7c-2.4,0-4.7,0-7.1,0c-5.6,0-7-1.5-7-7.2C99.1,112.2,99,108.4,99,104.5z"/>
	<path class="st3" d="M247.4,94c-0.9-3.5-3.2-5-6.8-4.7c-1.4,0.1-2.9-0.1-4.4-0.1c0-9.1,0-9.1,9.2-9.1c5.4,0,10.7,0.1,16.1,0
		c2.2,0,3.4,0.4,3.6,2.9c0.4,5,1.1,9.9,1.8,14.8c0.3,2.2-0.2,3.2-2.7,3.1c-4.4-0.2-8.7-0.1-13.1-0.1c-1.3-0.8-2.7-1.6-2.8-3.4
		C248.1,96.3,248.2,95,247.4,94z"/>
	<path class="st2" d="M180.5,53.1c0.5-7.3,0.5-7.2,7.9-7.3c4,0,8-0.1,12-0.2c3.5,1.7,1.8,4.9,1.9,7.4c0.1,2.5-2.1,1.8-3.6,1.9
		c-0.8,0.1-1.7,0.3-2.5,0.4c0.3,6.9-0.6,13.7,0.7,20.6c0.8,4.2-0.4,5.1-4.8,5.1c-1,0-2,0.1-3,0.3c-2.9,0.3-4-1.3-4.1-3.9
		c-0.2-4.5-0.1-8.9-0.1-13.4c0-3.1-0.5-5.9-3.6-7.6C179.8,55.8,179.5,54.5,180.5,53.1z"/>
	<path class="st1" d="M217.6,130.7c0.4,4.3,1.8,9.7-0.5,12.7c-1.9,2.6-7.5,0.7-11.4,0.8c-4.7,0.2-9.5,0-14.2,0.1
		c-1.5,0-2.6-0.1-2.6-2.1c0.1-4.9,0-9.7,0.1-14.6c0-0.8-0.3-2.4,1.5-1.3c0.4,0.4,0.9,0.5,1.3,0.8c3.5,3,5.9,2.7,10.4-1.1
		c4.3,1.2,8.2,3.6,12.9,3.2C216.1,129,216.8,130,217.6,130.7z"/>
	<path class="st3" d="M285.6,82.7c0,5-0.1,10,0,15c0,2.1-0.4,3.1-2.8,3.1c-6.9,0.1-6.9,0.2-8.1-6.6c-1-5.9-1.9-11.8-3.1-17.6
		c-0.6-2.8,0.2-4.3,2.7-5.6c3-1.5,5.9-3.3,8.7-5c1.9-1.2,2.6-0.9,2.6,1.4C285.5,72.5,285.6,77.6,285.6,82.7z"/>
	<path class="st3" d="M293.3,63.7c0-3.2,0.1-6.5,0-9.7c-0.1-2.3,0.7-2.8,2.9-2.3c2.2,0.5,4.5,1,6.7,0.9c4.5-0.2,5.3,2.1,5.1,6
		c-0.3,5.1-0.1,10.2-0.1,15.4c0,2-0.6,2.8-2.8,2.9c-11.7,0.5-11.7,0.6-11.7-11.1C293.3,64.9,293.3,64.3,293.3,63.7z"/>
	<path class="st4" d="M225.5,121.6c0.1,1.6,1.2,1.7,2.4,1.8c1.2,0.7,1.4,2.4,2.9,2.7c0.2,0.3,0.4,0.6,0.5,0.9
		c0.4,2.1,2.2,1.8,3.6,1.8c1.7,0.1,3.2,0.3,4.2,2c-0.7,5.6-1.5,11.3-2.1,16.9c-0.3,2.8-1,4.3-4.4,4.2c-8-0.3-8-0.1-8-8.1
		C224.6,136.4,224.4,129,225.5,121.6z"/>
	<path class="st3" d="M314.2,41.5c0,7,0,7-6.7,5.9c-3.7-0.6-7.3-1.3-11-1.8c-2.3-0.3-3-0.8-1.5-3.1c5.5-8.7,6.5-9.3,17-8.4
		c1.9,0.2,2.3,0.9,2.2,2.5C314.2,38.2,314.2,39.9,314.2,41.5z"/>
	<path class="st3" d="M149.9,123.4c0.3,0,0.6,0,0.9,0c1.1,0.9,1.4,2.5,3,3c0.2,0.3,0.4,0.7,0.5,1c3.1,1.9,4.4,4.6,3.7,8.3
		c-0.1,0.7-0.1,1.5-1.2,1.3c-7.5-0.6-14.9-1.3-22.4-1.7c-3.7-0.2-5.3-1.4-4.4-5.2c0.7-1.1,1.7-1.3,2.9-1.2c1.7,0.1,3.5-0.1,5.2,0
		C143,129.3,147.6,128.8,149.9,123.4z"/>
	<path class="st5" d="M111.2,89.1c-2.1,0.4-4.1,0.3-6.2,0.1c0-9.5,0-18.9,0-28.4c0.2,0,0.5-0.1,0.7-0.1
		C107.6,70.2,109.4,79.6,111.2,89.1z"/>
	<path class="st6" d="M129.7,123.4c3.1,0,6.2-0.1,9.4-0.1c4.9-0.1,6.4-1.6,6.4-6.6c0-2.7,0.1-5.5,0.1-8.2c1.4-0.7,2.2-0.2,2.5,1.3
		c0.2,4.6-0.2,9.2,0.2,13.8c0.2,2.2-0.7,3.9-2.8,4.5c-4.7,1.4-9.5,1.1-14.2,0.2c-0.5-0.1-1-0.7-1.4-1.2
		C129.8,125.8,129.8,124.6,129.7,123.4z"/>
	<path class="st7" d="M129.9,127.1c3.7,0,7.4,0,11.2-0.1c5-0.1,6.6-1.7,6.7-6.8c0.1-3.7,0.1-7.4,0.1-11.2c0.2-0.3,0.4-0.3,0.6-0.1
		c0,3.7,0.1,7.3,0.2,11c0,1.2-0.5,2.8,1.3,3.4c-0.4,6.1-1.7,7.4-7.8,7.4c-4.1,0-8.2,0.5-12.2-0.7
		C129.9,129.1,129.9,128.1,129.9,127.1z"/>
	<path class="st8" d="M145.4,92.1c-1.6-2.2-3.8-2.8-6.4-2.7c-2.8,0.1-5.6-0.1-8.4-0.1c0.3-3.1,0.6-6.3,1-9.4c0.7,0,1.4,0.1,2.1,0.1
		c0.8,1,1.8,1.7,3,2.3c0.2,0.3,0.4,0.6,0.5,1c3.2,2.4,5.1,2,6.7-1.5c0.4-0.8,0.7-1.2,1.5-1.2c0.5,0,1.1,0.3,1.1,0.8
		C146.3,84.9,147.9,88.7,145.4,92.1z"/>
	<path class="st9" d="M217.6,130.7c-1.9,0-3.7,0-5.6,0c-2.9,0-6,0.8-7.4-3.1c-0.2-0.6-1.7-0.9-2.6-1.3c-3.3,3.1-6.4,3.4-11.1,0.8
		c-0.2-0.3-0.3-0.6-0.5-0.9c7.7-0.1,15.4-0.3,23.1,0.1C216.7,126.5,218.5,127.2,217.6,130.7z"/>
	<path class="st10" d="M219.7,102.3c-2.2-1.4-4.6-0.5-6.9-0.7c-1.1-0.1-2.4,0.1-2.4-1.6c0-1.6,1.4-1.5,2.5-1.5c2.1,0,4.2-0.2,6.3,0
		c2.5,0.2,3.7-0.7,3.6-3.3c0.8,0,1.5,0,2.3,0.1c0.2,0.4,0.3,0.9,0.5,1.4c-0.4,1-0.2,2-0.3,3c0,1.5,0.2,3.2-1.5,3.9
		C222.4,104.1,220.9,103.6,219.7,102.3z"/>
	<path class="st11" d="M189.1,79.9c6.9-0.3,6.8-0.3,6.8-7.2c0-5.7-0.4-11.5,0.3-17.2c0.1,4.7,0.1,9.3,0.2,14c0,1.5-0.3,3.3,1.5,4.2
		c1.6,2.9,0.7,5.9,0.6,8.9c0,1.3-1.4,1.6-2.5,1.8c-1.5,0.2-2.9,0-4.4-0.3c-0.7-0.1-1.5-0.2-2.2-0.5
		C187.9,82.5,187.7,81.3,189.1,79.9z"/>
	<path class="st12" d="M113.7,103.3c0.1,0,0.2,0,0.4-0.1c6.5-0.4,6.5-0.4,6.9-7.1c0.7,0.1,1.5,0.2,2.2,0.2c0.1,0.2,0.1,0.3,0.2,0.5
		c0.2,2.4-0.1,4.7,0.1,7.1c0.2,3.1-0.9,4.3-4.1,3.9c-1.1-0.2-2.4-0.1-3.6,0c-1.2,0-2.4,0.1-3.2-1.1C111.9,105.3,112,104,113.7,103.3
		z"/>
	<path class="st13" d="M191.2,82.8c7.2-0.2,7.2-0.2,6.7-9.1c0.5-0.2,1.2,0,1.2,0.5c-0.1,6.4,1.2,12.8-0.3,19.1
		c-0.5-0.6-0.4-1.4-0.4-2.1c0.1-2.4-1.1-3-3.4-3.1c-1.5-0.1-3.4,0.4-4.5-1.4C190,85.2,190,83.9,191.2,82.8z"/>
	<path class="st14" d="M222.6,114.2c-2.4,0-4.8,0.1-7.1-0.1c-1.8-0.2-4.9,1.3-5-1.5c-0.1-3,3.1-1.4,4.8-1.7c1.6-0.3,3.6,0.5,4.4-1.8
		c0.5-0.5,1.1-0.7,1.7-0.4c1.4,1.4,0.7,3.4,1.4,5.1C222.9,113.9,222.8,114.1,222.6,114.2z"/>
	<path class="st7" d="M239.1,130.8c-1.7,0-3.4-0.1-5.2-0.1c-2.6,0.1-4-0.8-3.8-3.6c0.9-2.3,3.2-1.7,4.8-2.5c0.8-0.8,1.6-1.6,2.8-1.5
		c0.8,0.1,1.5,0.2,2.3,0.3C240.2,125.9,239.7,128.4,239.1,130.8z"/>
	<path class="st15" d="M191.4,86.4c0.1,0,0.2,0,0.4,0c7,0.1,7,0.1,7,6.9c-0.2,1-0.4,2-0.7,3.1c0-0.2,0-0.5,0-0.7
		c-0.1-5.9-0.1-5.9-5.9-6.2c-0.6,0-1.2-0.3-1.8-0.4C189.8,87.8,189.4,86.6,191.4,86.4z"/>
	<path class="st16" d="M153,123.4c3.9,0.5,5.2-1.3,4.8-5c-0.2-1.3-0.3-2.7,0.4-3.9c0,4.2-0.1,8.5-0.1,12.7c-1.7,2-3.4,1.6-5.1-0.1
		l0.1-0.1C151.7,125.8,151.6,124.6,153,123.4z"/>
	<path class="st17" d="M152.9,127.1c1.7,0,3.4,0,5.1,0.1c0.1,2.6,0.2,5.1,0.2,7.7c0,1,0.3,2.5-1.6,2c1.2-2.8,2.1-5.4-2.2-6.4
		C152.7,130.1,153.1,128.4,152.9,127.1z"/>
	<path class="st18" d="M225.5,106c0,2.5,0,5.1,0,7.6c-0.7-0.1-1.3-0.1-2-0.2c-1.2-2.6-3.1-5-1.8-8.1
		C223.2,104.2,224.5,104.5,225.5,106z"/>
	<path class="st19" d="M170.3,122.5c0-2.8,0-5.5,0-8.3c3-0.2,1.9,2.3,2.5,3.7c0.1,2.2-0.2,4.4,0.5,6.6c0.4,1.1,0.3,2.5-1.6,2.6
		C171.3,125.5,170.8,124,170.3,122.5z"/>
	<path class="st16" d="M177.7,123.4c1.5,0,2.9-0.1,4.4-0.1c-0.3,2,0.8,4.1-0.6,6c-1-1.5-2.9-0.8-4.2-1.6c-0.3-0.3-0.5-0.6-0.6-1
		C176.5,125.4,176.6,124.3,177.7,123.4z"/>
	<path class="st20" d="M171.8,127c1.1-3.2,0.5-6.4,0.4-9.7c0.3-0.3,0.6-0.3,0.9-0.1c0.6,2-0.7,4.3,1,6.1c1.3,2,1.6,3.9-0.1,5.8
		C172.3,129.5,172,128.3,171.8,127z"/>
	<path class="st21" d="M174,129.2c0-1.9,0.1-3.9,0.1-5.8c0.4,0,0.9,0,1.3,0c1.5,0.7,0.8,2.9,2.3,3.6l-0.1,0.1c0.8,0.7,0.7,1.4,0,2.1
		C176.5,129.2,175.3,129.2,174,129.2z"/>
	<path class="st22" d="M222.1,106c-0.4,2.6,2.1,4.7,1.4,7.4c-0.2,0.1-0.4,0.2-0.6,0.2c-1.9-1-1.4-3-1.8-4.6
		c-0.7-1.2-1.1-2.3,0.3-3.2C221.7,105.9,221.9,106,222.1,106z"/>
	<path class="st23" d="M249.1,96.9c0.7,1.3,1.4,2.6,2.1,3.8c-1.3,0-2.5,0-3.8-0.1c0-1.3,0-2.5,0-3.8C248,96.5,248.6,96.5,249.1,96.9
		z"/>
	<path class="st9" d="M177.7,129.2c0-0.7,0-1.4,0-2.1c1.7,0,3.7-0.5,3.9,2.2C180.3,129.3,179,129.2,177.7,129.2z"/>
	<path class="st24" d="M120.9,116.3c0-1,0-2,0-2.9c2.7-1.8,2.1,1.1,2.8,2.1c0,0.3,0,0.6,0,1C122.8,116.4,121.9,116.3,120.9,116.3z"
		/>
	<path class="st0" d="M189.1,79.9c0.2,1,0.4,1.9,0.7,2.9c1.7,2-0.1,4.3,0.5,6.4c-1.7,0.4-1.4,1.8-1.4,3c0,2.7,0,5.3-0.7,8.2
		c-2-3.7-4-7.4-5.9-11.1c-1.7-1.8-1.6-4.1-1.3-6.3c0.3-3.3,0.4-6.6-0.2-9.9c-0.4-2-1.3-3.5-3.8-3.1c-4.5-2.8-4.6-3.1-2.3-7.3
		c1.1-1.9,1.2-4,1.3-6.1c0.1-1.6-0.2-3.3,1.5-4.3c0.7-0.2,1.3,0.1,1.9,0.5c0.4,0.1,0.8,0.3,1.2,0.4c0.1,1.6,1.2,2.1,2.6,1.9
		c3.4-0.6,3.8,1.2,3.8,4.1c-0.2,6,0,12-0.1,18C186.7,78.8,187,80,189.1,79.9z"/>
	<path class="st25" d="M170.3,94c-0.8-3.4-3-4.7-6.5-4.7c-3.8,0.1-7.6-0.1-11.4-0.1c-1.1-0.6-1.6-1.5-1.2-2.8
		c0.2-0.4,0.5-0.7,0.9-0.9c4.2-0.1,4-3.7,5-6.3c0.3-0.2,0.7-0.3,1.1-0.2c1.4,0.6,1.2,2.7,2.9,3.1c0.8,2.6,2.9,2.4,5,2.3
		c2.3-0.1,2.2-1.8,2.2-3.4c0-0.7,0.1-1.5,0.8-1.9c0.4-0.1,0.7-0.2,1.1-0.1c1.1,1,1.6,2.6,3,3.4c0.9,2.5,3.1,1.9,5,2.1
		c3.3,0.4,3.7,0.9,3.2,4.5c-7.4-1.7-8.7,2.9-8.9,8.6c-0.2,0-0.3-0.1-0.5-0.1C170.7,96.8,171.2,95.1,170.3,94z"/>
	<path class="st26" d="M181.5,89.2c-0.1-3.3-2.6-2.7-4.5-2.7c-2.7,0.1-4.6-0.4-4.5-3.7c0.1-0.2,0.1-0.4,0.2-0.6
		c0.6-0.6,1.3-1,2.2-0.9c3.6,0.4,4.4-1.6,4.1-4.6c-0.1-0.6,0.2-1.2,0-1.7c0-0.2-0.1-0.5-0.2-0.7c-0.2-0.3-0.4-0.7-0.6-1.1
		c-0.6-1-1.9-1.5-1.8-2.9c-0.1-0.9,0.2-1.5,1.1-1.8c5-0.2,5-0.2,5,4.6c0,5.3,0,10.7,0,16c0,0-0.4,0-0.4,0L181.5,89.2z"/>
	<path class="st27" d="M167.8,109.9c-0.2-0.1-0.4-0.2-0.6-0.3c2.9-2.2,3.1-5.4,3.1-8.7c0.7-0.8,1.5-0.7,2.3-0.1
		c1.3,2.9,0.5,5.9,0.5,8.9c-0.4,0.5-0.9,1-1.6,1.1C170.2,111.1,169,110.3,167.8,109.9z"/>
	<path class="st28" d="M171.8,109.9c0.4-0.1,0.9-0.2,1.3-0.2c0,2.6,0,5.1,0,7.7c-0.3,0-0.6,0-0.9,0.1c-0.6-1.1-0.7-2.4-1.9-3.1
		c-0.1-0.5-0.2-1.1-0.3-1.6C169.9,111.2,170.8,110.5,171.8,109.9z"/>
	<path class="st29" d="M177.7,127c-2.7,0-2.2-2-2.3-3.6c0.8,0,1.5,0,2.3,0C177.7,124.6,177.7,125.8,177.7,127z"/>
	<path class="st30" d="M172.6,100.7c-0.8,0-1.5,0-2.3,0.1c0-1.3,0-2.6,0-3.9c1.1-0.9,1.6,0,2.1,0.8c0,0,0.2,0.2,0.2,0.2
		C172.6,98.8,172.6,99.8,172.6,100.7z"/>
	<path class="st31" d="M190.2,89.2c-0.2-2.1-0.3-4.3-0.5-6.4c0.5,0,1,0,1.5,0.1c0.1,1.2,0.1,2.4,0.2,3.6c-0.3,0.9-0.7,1.7-1,2.6
		C190.4,89,190.2,89.2,190.2,89.2z"/>
	<path class="st2" d="M177.3,68.6c0.2,0.5,0.3,0.9,0.5,1.4c0.7,1.1,0.7,2.3,0.8,3.5c-0.2,0.7,0.1,1.3,0.1,2c0,5.8-0.1,6-5.8,5.5
		c-1-0.1-1.9-0.3-2.7-1.1l-0.4,0l-0.4,0c-0.5,0.4-1.1,0.6-1.7,0.4c-1.4-0.7-1.9-1.9-1.7-3.4c0,4.6-0.2,4.7-6.2,4.1
		c-0.8-0.1-1.2-0.7-1.8-1.1l-0.3,0l-0.3,0c-3.1,0.7-3.1-1.7-3.3-3.6c-0.2-2.6,0-5.2,0.1-7.7c0.6-4.8-0.4-9.7,0.7-14.5
		c0.2-0.5,0.5-0.9,0.9-1.2c0.4-6.9,0.4-6.9,7.4-6.9c2.7,0,5.4,0.1,8.2,0c3.1-0.1,5.2,1.1,6.3,4c0.6,1,0.8,2,0.1,3
		c-0.1,1.9-0.2,3.7-0.1,5.6c0.1,3-0.2,5.7-3.2,7.2C175.5,66.8,176.4,67.7,177.3,68.6z"/>
	<path class="st32" d="M155.9,52.8c0,0.2,0,0.5,0,0.7c-1.2,1.2-2,0.3-2.8-0.6c0-1-0.1-2.1-0.1-3.1C154,50.8,154.9,51.8,155.9,52.8z"
		/>
	<path class="st33" d="M177.8,52.9c0-1,0-2-0.1-3c0.9,0.7,1.5,1.6,1.5,2.8C178.8,52.8,178.3,52.8,177.8,52.9z"/>
	<path class="st34" d="M152.4,86.6c0,0.9,0,1.7,0,2.6c-2.9-0.2-4.1,0.8-3.9,4.1c0.3,5.2,0,10.5,0,15.7c-0.2,0-0.4,0-0.6,0.1
		c-0.7-0.2-1.4-0.4-2.1-0.6c0-4.2,0-8.4,0-12.6c0.5-5.3,0-10.7,0.3-16c2.1,0,4.2,0,6.4,0C154.6,82.1,153.4,84.4,152.4,86.6z"/>
	<path class="st28" d="M146,79.9c0.2,5.3,0.8,10.7-0.3,16c-0.1-1.3-0.2-2.5-0.3-3.8c0-3.2,0-6.4,0-9.7c-0.2,4.4-3.2,4.1-6.2,4.1
		c-2.6,0-3.6-1.3-3.5-3.7c0.3-0.7,0.7-1.3,1.5-1.3c2.7,0,4.5-0.9,4.5-4c0-0.6,0.8-1.2,1.7-0.7C143.6,78.3,143.7,80,146,79.9z"/>
	<path class="st35" d="M153.1,52.9c0.9,0.2,1.9,0.4,2.8,0.6c0,5,0,10,0,15c-0.3,0.3-0.5,0.5-0.9,0.7c-0.9,0.3-1.4-0.1-2-0.7
		C153.1,63.3,153.1,58.1,153.1,52.9z"/>
	<path class="st36" d="M143.4,76.7c-0.1,0.1-0.1,0.2-0.2,0.3c-1.5,5.6-1.5,5.6-7.5,5.8c0,0,0.1-0.1,0.1-0.1c-0.9-1-1-1.9,0-2.9
		c2.3-0.2,5.3,0.5,4.8-3.6c-0.1-1.2-0.1-2.8,1.8-2.5C144.2,74.1,143.5,75.6,143.4,76.7z"/>
	<path class="st37" d="M153.1,68.5c0.7,0,1.5,0,2.2,0.1c1,4.3-0.3,8.8,1,13.2c0.6,2.1-1.9,3.3-3.4,4.6c-0.2,0.1-0.3,0.2-0.5,0.2
		c0-2.3,0-4.5-0.1-6.8C153.7,76.1,152.5,72.3,153.1,68.5z"/>
	<path class="st38" d="M140.5,59.3c0-0.9,0-1.7,0-2.6c0-1,0.5-1.6,1.6-1.6c1.1,0,1.6,0.6,1.6,1.6c0,1.7,0,3.5,0,5.2
		c0,1.1-0.5,2-1.6,2.1c-1.3,0.1-1.5-1-1.6-2C140.4,61,140.5,60.1,140.5,59.3z"/>
	<path class="st39" d="M135.7,79.9c0,1,0,1.9,0,2.9c-2.1,0.1-2.3-1.3-2.2-2.9C134.3,79.9,135,79.9,135.7,79.9z"/>
	<path class="st40" d="M236.9,127c-2.2,0.1-4.5,0.1-6.7,0.2c0,0,0.1-0.1,0.1-0.1c-1.2-1.2-1.4-2.4,0-3.7c4.4-0.3,4.4-0.3,4.7-6.8
		c0.7-1,1.4-2,2.8-0.9c0,0.7,0,1.4,0,2.2C236.7,120.8,238.2,124,236.9,127z"/>
	<path class="st28" d="M225.5,106c-1.1,0-2.3,0-3.4,0c-0.1,0-0.3,0-0.4,0c-0.7-0.1-1.5,0-1.9-0.8c0-0.9,0-1.9,0-2.8
		c4.7,1,5.3-2.4,5.9-5.6C225.6,99.8,225.6,102.9,225.5,106z"/>
	<path class="st41" d="M237.7,100.8c0,1,0.3,2,0,2.9c-0.4,1.3-2.1,1.1-2.3,0.5c-0.5-1.8-1.9-4.1,0.9-5.5
		C237.1,99.2,237,100.2,237.7,100.8z"/>
	<path class="st29" d="M230.2,123.4c0,1.2,0,2.4,0,3.7c-2.7,0-2.2-2-2.3-3.7C228.7,123.4,229.5,123.4,230.2,123.4z"/>
	<path class="st42" d="M236.9,127c0.4-3-0.5-6.2,0.8-9.1c0,1.7,0.1,3.5,0.1,5.2C237.8,124.4,237.7,125.8,236.9,127z"/>
	<path class="st43" d="M237.7,115.7c-0.9,0.3-1.9,0.6-2.8,0.9c-0.1-1-0.5-2.2,1.1-2.5C237.2,113.9,237.9,114.4,237.7,115.7z"/>
	<path class="st44" d="M237.7,100.8c-1.1-0.3-1.4-1.2-1.5-2.2C238,98.6,237.8,99.7,237.7,100.8z"/>
	<path class="st33" d="M249.1,96.9c-0.6,0-1.1,0-1.7,0c0-1,0-1.9,0-2.9C248.4,94.8,249,95.7,249.1,96.9z"/>
	<path class="st45" d="M158,104.4c-0.6-1.9-0.9-3.9,0.5-5.6c0.2-0.3,1.4-0.3,1.7,0c1.5,1.6,1.1,3.6,0.6,5.5
		C159.8,103.6,158.9,103.7,158,104.4z"/>
	<path class="st46" d="M158,104.4c0.3-1.1-0.3-3,1.4-3c1.7,0,1.1,1.9,1.4,3C159.8,104.8,158.9,104.8,158,104.4z"/>
	<path class="st39" d="M153,123.4c0,1.2,0,2.4,0,3.6c-2.8,0-2.1-2-2.2-3.6C151.5,123.4,152.3,123.4,153,123.4z"/>
	<path class="st47" d="M171.8,109.9c-0.3,1.1-1,1.9-1.8,2.7c-0.7-0.9-1.5-1.8-2.2-2.7C169.2,109.9,170.5,109.9,171.8,109.9z"/>
	<path class="st48" d="M172.4,97.7c-0.7-0.3-1.4-0.5-2.1-0.8c0-1,0-1.9,0-2.9C171.6,94.9,172.2,96.1,172.4,97.7z"/>
	<path class="st49" d="M115.4,106.9c7.9-0.1,7.7,0.7,7.7-7.7c0-0.7,0.1-1.5,0.2-2.2c1.3,4.6,0.5,9.3,0.4,14c-0.6,0.3-1.3,0.7-2,0.3
		c-0.3-0.2-0.6-0.5-0.8-0.7c-0.1-0.3-0.1-0.6-0.2-0.8c-1.4-0.7-3,0-4.5-0.4C115.2,108.7,114.8,108,115.4,106.9z"/>
	<path class="st50" d="M133.4,106.9c0-2.2-0.1-4.5-0.1-6.7c0-1,0.3-1.7,1.5-1.7c1.1,0,1.5,0.7,1.5,1.7c0,2.2-0.1,4.5-0.1,6.7
		C135.3,108.4,134.4,108.2,133.4,106.9z"/>
	<path class="st51" d="M133.4,106.9c0.9,0,1.9,0,2.8,0c0,1.7,0,3.4,0,5.2c0,0.9-0.4,1.7-1.5,1.7c-1.2,0-1.4-0.9-1.4-1.7
		C133.3,110.4,133.4,108.6,133.4,106.9z"/>
	<path class="st52" d="M121.5,110.6c0.7,0.1,1.4,0.2,2.2,0.4c0,1.5,0,3,0,4.5c-1-0.6-1.3-2.2-2.8-2.1c0-0.2,0-0.4,0-0.6
		C121.7,112.2,121.1,111.2,121.5,110.6z"/>
	<path class="st53" d="M219.8,105.2c0.6,0.3,1.3,0.5,1.9,0.8c-0.2,1-0.3,2.1-0.5,3.1c-0.5,0-0.9,0-1.4-0.1
		C219.8,107.8,219.8,106.5,219.8,105.2z"/>
	<path class="st54" d="M110.7,113.6c-2.4,0.9-2.1-0.9-2.2-2.2c-0.1-3.1-0.1-6.2,0-9.3c0.1-1.3-0.7-3.5,1.7-3.3
		c2.2,0.2,1.2,2.3,1.2,3.6c0.7,2.3,1,4.5,0.3,6.9C110.8,110.5,112.1,112.4,110.7,113.6z"/>
	<path class="st49" d="M110.9,109c0-2.2-0.4-4.5,0.5-6.6c0.7,0.3,1.5,0.6,2.2,0.9c-0.2,1-0.4,1.9-0.5,2.9c-0.1,1.1,0.9,2.3-0.6,3.1
		C112,109.4,111.4,109.5,110.9,109z"/>
	<path class="st55" d="M110.9,109c0.6-0.1,1.1-0.1,1.7-0.2c1.1-1.2,2.3-1.1,3.4,0c1.6,0.1,3.2,0.1,4.7,0.9c-1-0.1-2-0.1-2.9-0.2
		c-3.3-0.3-6.3-0.1-7.1,4.1C110.8,112,110.9,110.5,110.9,109z"/>
	<path class="st56" d="M121.5,110.6c0.9,1,1.1,1.9-0.6,2.2c0-0.7,0-1.5,0-2.2C121.1,110.5,121.3,110.6,121.5,110.6z"/>
	<path class="st17" d="M191,127.1c3.7-0.2,7.4,0.1,11.1-0.8c-0.4,1.7,0.2,3.8-2.4,4.3C195.3,131.5,193,130.7,191,127.1z"/>
	<path class="st1" d="M116.1,108.8c-1.1,0-2.3,0-3.4,0c0.2-0.9,0.3-1.8,0.5-2.7c0.8,0.2,1.5,0.5,2.3,0.7
		C115.6,107.5,115.8,108.2,116.1,108.8z"/>
	<path class="st57" d="M168.2,79.4c0.5,0.1,0.9,0.3,1.4,0.4c0,1-0.1,2,0,3c0.2,2.7-1.1,3.8-3.8,3.7c-2.5-0.1-5.6,0.7-5.3-3.5
		c0.1-0.2,0.1-0.4,0.2-0.6c1.3-1.7,3.6-0.6,5.1-1.7C166.3,79.7,167.2,79.5,168.2,79.4z"/>
	<path class="st7" d="M152.9,86.4c3.3-5.6,2-11.8,2.4-17.8c0.2,0,0.4-0.1,0.6-0.1c0,2.8,0.1,5.6,0.1,8.4c0,1.2-0.2,2.5,1.5,2.9
		c0,0.7-0.1,1.5,0,2.2C157.7,85.4,156.4,87,152.9,86.4z"/>
	<path class="st33" d="M170.3,79.9c0.7,0,1.5,0,2.2,0c0.9,0.9,1.1,1.8,0.1,2.7l-0.1,0.3C170.5,82.8,170.2,81.4,170.3,79.9z"/>
	<path class="st58" d="M158.2,79.9c0.8,0,1.5,0,2.3,0c0.9,0.9,1,1.8,0,2.7c0,0,0,0.4,0,0.4C158.5,82.8,158.1,81.6,158.2,79.9z"/>
	<path class="st59" d="M172.5,82.5c0-0.9,0-1.8-0.1-2.7c4.9-0.3,4.9-0.3,5.3-6.9c0.4-0.5,0.9-0.5,1.3,0c0.3,0.3,0.6,0.5,0.9,0.8l0,0
		c0,0.7,0,1.5-0.1,2.2C179.9,83.2,179.9,83.2,172.5,82.5z"/>
	<path class="st60" d="M180,73.8c0.2-0.9-0.2-2,1.3-2.6C181.4,72.5,182.1,73.7,180,73.8C180,73.8,180,73.8,180,73.8z"/>
	<path class="st61" d="M179.1,73c-0.4,0-0.8,0-1.3,0c0-1,0-2-0.1-3C178.8,70.7,179.2,71.8,179.1,73z"/>
	<path class="st62" d="M160.5,82.6c0-0.9,0-1.8,0-2.7c4,0.6,5.3-1.4,4.7-5.1c-0.1-0.5,0-1,0-1.5c0.1-1.2-0.1-2.8,1.7-2.6
		c1.9,0.2,1.3,1.6,1.1,2.8c-1.3,3,0.4,6.2-0.9,9.2C164.9,82.7,162.7,82.6,160.5,82.6z"/>
	<path class="st63" d="M168.5,58.3c-0.2,1.2,0.3,2.8-1.6,2.9c-2.4,0-1.7-2-1.7-3.3c0-1.1-0.4-2.7,1.5-2.8
		C169.2,55,168.2,57.1,168.5,58.3z"/>
	<path class="st42" d="M167.2,82.7c0.5-3.1-0.6-6.3,0.9-9.2c0,2,0,3.9,0.1,5.9C167.8,80.5,167.5,81.6,167.2,82.7z"/>
</g>
</svg>
